<svg xmlns="http://www.w3.org/2000/svg" id="Layer_1" viewBox="0 0 297.6 62.4"><defs id="defs49"><linearGradient y2="10" x2="55.2" y1="52.8" x1="12.5" gradientUnits="userSpaceOnUse" id="SVGID_1_"><stop stop-color="#53b89c" id="stop4" offset="0"/><stop stop-color="#51b29a" id="stop6" offset=".1"/><stop stop-color="#4ca295" id="stop8" offset=".3"/><stop stop-color="#44878c" id="stop10" offset=".5"/><stop stop-color="#396180" id="stop12" offset=".7"/><stop stop-color="#2b3170" id="stop14" offset="1"/><stop stop-color="#2a2d6f" id="stop16" offset="1"/></linearGradient></defs><path id="path19" d="M38.7 20.7H25a.9.9 0 0 1-.9-.9c.5-7.2 6.5-12.9 13.8-12.9h13.7c.5 0 .9.4.9.9a13.8 13.8 0 0 1-13.8 12.9zm30.4 21.6c0-.5-.4-.9-.9-.9H37.9c-7.3 0-13.3 5.7-13.8 12.9 0 .5.4.9.9.9h30.3c7.3.1 13.3-5.7 13.8-12.9zM7.7 6.9c-.5 0-.9.4-.9.9v33.7c0 7.3 5.7 13.3 12.9 13.8.5 0 .9-.4.9-.9V20.7c.1-7.4-5.7-13.4-12.9-13.8zM37.9 38h30.3c.5 0 .9-.4.9-.9a13.9 13.9 0 0 0-13.8-12.9H25c-.5 0-.9.4-.9.9.5 7.2 6.5 12.9 13.8 12.9z" fill="#fdfefe"/><circle id="circle21" r="6.9" cy="13.8" cx="62.2" fill="#e7462c"/><g id="g75" fill="#fff"><path id="path57" d="M82.9 13.8h5.7v15.8H98v4.9H82.9z" class="st2"/><path id="path59" d="M110.5 13.8h6.4l7.2 20.7H118l-.9-3.1h-6.7l-.9 3.1h-6.2zm1.1 13.4h4.1l-2-6.8h-.1z" class="st2"/><path id="path61" d="M158.9 13.8h6.4l7.2 20.7h-6.1l-.9-3.1h-6.7l-.9 3.1h-6.2zm1.1 13.4h4.1l-2-6.8h-.1z" class="st2"/><path id="path63" d="M178.1 13.8h9.3c6.4 0 8.5 3.3 8.5 6.8 0 2.4-1.1 4.5-3.5 5.6l3.7 8.3H190l-2.7-7.3h-3.5v7.3h-5.7zm9.3 9.3c1.7 0 2.8-.9 2.8-2.5 0-1.7-1.1-2.5-2.8-2.5h-3.5V23h3.5z" class="st2"/><path id="path65" d="M204.6 28.1c1.9 1.1 4.1 1.8 5.9 1.8 1.5 0 2.4-.6 2.4-1.5 0-2.8-10.6-.8-10.6-8.6 0-3.5 2.9-6.5 7.9-6.5 2.7 0 5.2.7 7.8 1.9l-2.1 4.4a12 12 0 0 0-5.4-1.4c-1.5 0-2.3.6-2.3 1.5 0 2.7 10.6.7 10.6 8.6 0 3.6-2.8 6.5-8.3 6.5-3.2 0-6.6-1.1-8.7-2.4z" class="st2"/><path id="path67" d="M234.2 13.4c6.7 0 11 4.8 11 10.8 0 5.9-4.2 10.8-11 10.8-6.7 0-11-4.8-11-10.8 0-6 4.3-10.8 11-10.8zm0 16.7c3.3 0 5.2-2.6 5.2-6s-1.9-6-5.2-6c-3.3 0-5.2 2.6-5.2 6 0 3.5 1.9 6 5.2 6z" class="st2"/><path id="path69" d="M250.2 13.8h15.4v4.9H256v3.6h8.3v4.6H256v7.7h-5.7V13.8z" class="st2"/><path id="path71" d="M278.2 18.8h-6.5v-5h18.6v5h-6.5v15.7h-5.7V18.8z" class="st2"/><path id="path73" d="M142.5 22.7h-4.8v4.8h4v1.9c-.8.5-1.7.7-2.9.7-3.4 0-5.4-2.3-5.4-6 0-3.4 2.1-6 5.4-6 2 0 3.5.8 4.8 1.8l3-3.7a12.2 12.2 0 0 0-8.1-2.9c-6.8 0-11 4.9-11 10.7 0 6.2 4.3 10.8 11 10.8 3.3 0 6.1-1 8.3-2.6v-9.6h-4.3z" class="st2"/></g><g word-spacing="0" letter-spacing="2.2" font-size="12" font-weight="400" id="text909" style="line-height:1.25;-inkscape-font-specification:'Lucida Console'" aria-label="INFORMATION TECHNOLOGY" font-family="Lucida Console" fill="#e8472c"><path id="path835" style="line-height:8" d="M83.5 50.5v-.8h2v-5.8h-2V43h5.2v.9h-2v5.8h2v.8z"/><path id="path837" style="line-height:8" d="M92.8 50.5V43h1l3.5 5.5V43h1v7.5h-1.1L93.7 45v5.5z"/><path id="path839" style="line-height:8" d="M102.7 50.5V43h5.4v.9h-4.2v2.6h3.6v.9h-3.6v3.1z"/><path id="path841" style="line-height:8" d="M111 46.8q0-1.8 1-2.9.8-1 2.3-1 1.5 0 2.4 1 .9 1 .9 2.9 0 1.8-1 2.9-.8 1-2.3 1-1.5 0-2.4-1-.8-1.1-.8-3zm1.3 0q0 1.5.5 2.3.5.8 1.5.8t1.5-.8q.5-.8.5-2.3 0-1.5-.5-2.3-.5-.8-1.5-.8t-1.5.8q-.5.8-.5 2.3z"/><path id="path843" style="line-height:8" d="M121.2 50.5V43h2q1.4 0 1.9.2 1 .5 1 1.6 0 .8-.3 1.4-.4.5-1.3 1l2.6 3.3h-1.4l-2.3-3h-1v3zm1.1-4h.6q1 0 1.5-.4.6-.4.6-1 0-.7-.5-1-.4-.2-1.5-.2h-.7z"/><path id="path845" style="line-height:8" d="M130 50.5V43h1.4l1.7 4.7 1.6-4.7h1.5v7.5h-1v-6.4l-1.7 4.9h-1l-1.6-4.8v6.3z"/><path id="path847" style="line-height:8" d="M139 50.5l3-7.5h1l3 7.5h-1.2l-.7-1.8h-3.4l-.7 1.8zm2-2.7h2.8l-1.4-3.6z"/><path id="path849" style="line-height:8" d="M151.3 50.5V44h-2.9v-1h7v.9h-2.9v6.6z"/><path id="path851" style="line-height:8" d="M158.7 50.5v-.8h2v-5.8h-2V43h5.2v.9h-2v5.8h2v.8z"/><path id="path853" style="line-height:8" d="M167.5 46.8q0-1.8.8-2.9 1-1 2.4-1 1.5 0 2.4 1 .9 1 .9 2.9 0 1.8-1 2.9-.8 1-2.3 1-1.5 0-2.4-1-.8-1.1-.8-3zm1.2 0q0 1.5.5 2.3.5.8 1.5.8t1.5-.8q.5-.8.5-2.3 0-1.5-.5-2.3-.5-.8-1.5-.8t-1.5.8q-.5.8-.5 2.3z"/><path id="path855" style="line-height:8" d="M177.4 50.5V43h1l3.5 5.5V43h1v7.5h-1.1l-3.5-5.5v5.5z"/><path id="path857" style="line-height:8" d="M198.3 50.5V44h-2.8v-1h6.9v.9h-2.9v6.6z"/><path id="path859" style="line-height:8" d="M206 50.5V43h5v.9h-3.9v2.3h3.4v.8H207v2.7h4.2v.8z"/><path id="path861" style="line-height:8" d="M220.9 50.3q-1.2.4-2.2.4-1.8 0-2.9-1-1-1.1-1-2.9 0-1.7 1-2.9 1-1 2.9-1 1 0 2 .3v1q-1-.5-2-.5-1.3 0-2 .9-.8.8-.8 2.1 0 1.4.9 2.2.8.9 2.2.9.8 0 1.9-.4z"/><path id="path863" style="line-height:8" d="M224.4 50.5V43h1.1v3.3h3.2V43h1.2v7.5h-1.2v-3.3h-3.2v3.3z"/><path id="path865" style="line-height:8" d="M233.8 50.5V43h1l3.5 5.5V43h1v7.5h-1l-3.6-5.5v5.5z"/><path id="path867" style="line-height:8" d="M242.7 46.8q0-1.8.9-2.9.8-1 2.3-1 1.5 0 2.4 1 .9 1 .9 2.9 0 1.8-.9 2.9-.9 1-2.4 1t-2.3-1q-1-1.1-1-3zm1.2 0q0 1.5.5 2.3.6.8 1.5.8 1 0 1.5-.8.6-.8.6-2.3 0-1.5-.6-2.3-.5-.8-1.5-.8t-1.5.8q-.5.8-.5 2.3z"/><path id="path869" style="line-height:8" d="M253 50.5V43h1.2v6.7h4v.8z"/><path id="path871" style="line-height:8" d="M261.5 46.8q0-1.8.9-2.9.9-1 2.3-1 1.5 0 2.4 1 .9 1 .9 2.9 0 1.8-.9 2.9-.9 1-2.4 1-1.4 0-2.3-1-1-1.1-1-3zm1.2 0q0 1.5.5 2.3.6.8 1.5.8 1 0 1.5-.8.6-.8.6-2.3 0-1.5-.6-2.3-.5-.8-1.5-.8t-1.5.8q-.5.8-.5 2.3z"/><path id="path873" style="line-height:8" d="M277 43.2v1q-1.1-.5-2.1-.5-1.2 0-2 .9-.7.8-.7 2.1 0 1.4.9 2.2.8.9 2.1.9h.8v-2h-1.4v-1h2.5v3.6q-1.1.3-2.2.3-1.7 0-2.8-1-1.1-1.1-1.1-2.9 0-1.7 1-2.9 1.2-1 3-1 1 0 2 .3z"/><path id="path875" style="line-height:8" d="M283 50.5v-3l-3-4.5h1.3l2.2 3.5L286 43h1.1l-3 4.5v3z"/></g></svg>