<svg width="36" height="37" fill="none" xmlns="http://www.w3.org/2000/svg"><g clip-path="url(#clip0)"><path d="M29.3.9H7.2C3.5.9.5 3.9.5 7.5v22.1c0 3.7 3 6.7 6.7 6.7h22.1c3.7 0 6.7-3 6.7-6.7v-22c0-3.8-3-6.7-6.7-6.7zm-17.8 30H6V14.5h5.5v16.4zM8.6 12.3c-1.8 0-3-1.2-3-2.8 0-1.6 1.2-2.8 3-2.8 1.9 0 3 1.2 3 2.8 0 1.6-1.1 2.8-3 2.8zm22 18.6H25v-9c0-2-.6-3.6-2.5-3.6-1.5 0-2.3 1-2.6 2-.2.3-.2.8-.2 1.3V31H14V14.5h5.5v2.3a5.2 5.2 0 0 1 4.8-2.7c3.5 0 6.2 2.3 6.2 7.3v9.5z" fill="#fff"/></g><defs><clipPath id="clip0"><path fill="#fff" transform="translate(.5 .9)" d="M0 0h35.4v35.4H0z"/></clipPath></defs></svg>