<svg width="51" height="51" fill="none" xmlns="http://www.w3.org/2000/svg"><path fill-rule="evenodd" clip-rule="evenodd" d="M25.3 6.8a18.7 18.7 0 0 0-6 36.6c1 .1 1.3-.4 1.3-1v-3.1c-5.2 1.1-6.3-2.5-6.3-2.5-.9-2.2-2.1-2.8-2.1-2.8-1.7-1.1.1-1.1.1-1.1 1.9.1 2.9 2 2.9 2 1.7 2.8 4.4 2 5.4 1.5a4 4 0 0 1 1.2-2.5c-4.1-.5-8.5-2.1-8.5-9.3 0-2 .7-3.7 2-5-.3-.5-1-2.4.1-5 0 0 1.6-.5 5.2 2a18 18 0 0 1 9.3 0c3.6-2.5 5.2-2 5.2-2 1 2.6.4 4.5.2 5 1.2 1.3 2 3 2 5 0 7.2-4.5 8.8-8.6 9.3.6.5 1.2 1.7 1.2 3.4v5.2c0 .5.3 1 1.3.9a18.8 18.8 0 0 0-6-36.6z" fill="#fff"/></svg>