<svg width="381" height="272" fill="none" xmlns="http://www.w3.org/2000/svg"><path d="M174.6 89.3H81.2l-.1-.2a88.3 88.3 0 0 1 87.8-83.5h93.3l.2.1.2.5a87.8 87.8 0 0 1-88 83zm200.3 151.6c.2 0 .4 0 .5.2l.1.1.1.3a89 89 0 0 1-88.7 83h-206l-.6-.1v-.2l-.1-.2a88.4 88.4 0 0 1 88.7-83.1h206zm-412-5.7V6.4c0-.2.1-.3.3-.5a1.5 1.5 0 0 1 .4-.3 89.4 89.4 0 0 1 83 88.7V323l-.2.6-.2.1H46a88.4 88.4 0 0 1-83-88.6zm0-228.8zm.8-.8zm411.2 201.7h-206A90 90 0 0 1 80.4 123h.1l.4-.1h206a89 89 0 0 1 88.5 84.2l-.1.1h-.4z" stroke="#fff" stroke-width="10"/><path d="M333.6 95a47.2 47.2 0 1 0 0-94.4 47.2 47.2 0 0 0 0 94.4z" fill="#E94E1B"/></svg>