<?xml version="1.0" encoding="UTF-8" standalone="no"?>
<svg
   xmlns:dc="http://purl.org/dc/elements/1.1/"
   xmlns:cc="http://creativecommons.org/ns#"
   xmlns:rdf="http://www.w3.org/1999/02/22-rdf-syntax-ns#"
   xmlns:svg="http://www.w3.org/2000/svg"
   xmlns="http://www.w3.org/2000/svg"
   xmlns:sodipodi="http://sodipodi.sourceforge.net/DTD/sodipodi-0.dtd"
   xmlns:inkscape="http://www.inkscape.org/namespaces/inkscape"
   id="Layer_1"
   viewBox="0 0 297.6 62.4"
   version="1.1"
   sodipodi:docname="header-logo-light.svg"
   inkscape:version="0.92.3 (2405546, 2018-03-11)">
  <metadata
     id="metadata3899">
    <rdf:RDF>
      <cc:Work
         rdf:about="">
        <dc:format>image/svg+xml</dc:format>
        <dc:type
           rdf:resource="http://purl.org/dc/dcmitype/StillImage" />
      </cc:Work>
    </rdf:RDF>
  </metadata>
  <sodipodi:namedview
     pagecolor="#ffffff"
     bordercolor="#666666"
     borderopacity="1"
     objecttolerance="10"
     gridtolerance="10"
     guidetolerance="10"
     inkscape:pageopacity="0"
     inkscape:pageshadow="2"
     inkscape:window-width="1780"
     inkscape:window-height="1212"
     id="namedview3897"
     showgrid="false"
     inkscape:zoom="4.144924"
     inkscape:cx="125.87974"
     inkscape:cy="50.054542"
     inkscape:window-x="1640"
     inkscape:window-y="405"
     inkscape:window-maximized="0"
     inkscape:current-layer="Layer_1" />
  <defs
     id="defs49">
    <linearGradient
       y2="10"
       x2="55.2"
       y1="52.8"
       x1="12.5"
       gradientUnits="userSpaceOnUse"
       id="SVGID_1_">
      <stop
         stop-color="#53b89c"
         id="stop4"
         offset="0" />
      <stop
         stop-color="#51b29a"
         id="stop6"
         offset=".1" />
      <stop
         stop-color="#4ca295"
         id="stop8"
         offset=".3" />
      <stop
         stop-color="#44878c"
         id="stop10"
         offset=".5" />
      <stop
         stop-color="#396180"
         id="stop12"
         offset=".7" />
      <stop
         stop-color="#2b3170"
         id="stop14"
         offset="1" />
      <stop
         stop-color="#2a2d6f"
         id="stop16"
         offset="1" />
    </linearGradient>
  </defs>
  <path
     id="path19"
     d="M38.7 20.7H25a.9.9 0 0 1-.9-.9c.5-7.2 6.5-12.9 13.8-12.9h13.7c.5 0 .9.4.9.9a13.8 13.8 0 0 1-13.8 12.9zm30.4 21.6c0-.5-.4-.9-.9-.9H37.9c-7.3 0-13.3 5.7-13.8 12.9 0 .5.4.9.9.9h30.3c7.3.1 13.3-5.7 13.8-12.9zM7.7 6.9c-.5 0-.9.4-.9.9v33.7c0 7.3 5.7 13.3 12.9 13.8.5 0 .9-.4.9-.9V20.7c.1-7.4-5.7-13.4-12.9-13.8zM37.9 38h30.3c.5 0 .9-.4.9-.9a13.9 13.9 0 0 0-13.8-12.9H25c-.5 0-.9.4-.9.9.5 7.2 6.5 12.9 13.8 12.9z"
     fill="#fdfefe" />
  <circle
     id="circle21"
     r="6.9"
     cy="13.8"
     cx="62.2"
     fill="#e7462c" />
  <g
     id="g75"
     transform="translate(0,8)"
     style="fill:#ffffff">
    <path
       id="path57"
       d="m 82.9,13.8 h 5.7 V 29.6 H 98 v 4.9 H 82.9 Z"
       class="st2"
       inkscape:connector-curvature="0" />
    <path
       id="path59"
       d="m 110.5,13.8 h 6.4 l 7.2,20.7 H 118 l -0.9,-3.1 h -6.7 l -0.9,3.1 h -6.2 z m 1.1,13.4 h 4.1 l -2,-6.8 h -0.1 z"
       class="st2"
       inkscape:connector-curvature="0" />
    <path
       id="path61"
       d="m 158.9,13.8 h 6.4 l 7.2,20.7 h -6.1 l -0.9,-3.1 h -6.7 l -0.9,3.1 h -6.2 z m 1.1,13.4 h 4.1 l -2,-6.8 H 162 Z"
       class="st2"
       inkscape:connector-curvature="0" />
    <path
       id="path63"
       d="m 178.1,13.8 h 9.3 c 6.4,0 8.5,3.3 8.5,6.8 0,2.4 -1.1,4.5 -3.5,5.6 l 3.7,8.3 H 190 l -2.7,-7.3 h -3.5 v 7.3 h -5.7 z m 9.3,9.3 c 1.7,0 2.8,-0.9 2.8,-2.5 0,-1.7 -1.1,-2.5 -2.8,-2.5 h -3.5 V 23 h 3.5 z"
       class="st2"
       inkscape:connector-curvature="0" />
    <path
       id="path65"
       d="m 204.6,28.1 c 1.9,1.1 4.1,1.8 5.9,1.8 1.5,0 2.4,-0.6 2.4,-1.5 0,-2.8 -10.6,-0.8 -10.6,-8.6 0,-3.5 2.9,-6.5 7.9,-6.5 2.7,0 5.2,0.7 7.8,1.9 l -2.1,4.4 a 12,12 0 0 0 -5.4,-1.4 c -1.5,0 -2.3,0.6 -2.3,1.5 0,2.7 10.6,0.7 10.6,8.6 0,3.6 -2.8,6.5 -8.3,6.5 -3.2,0 -6.6,-1.1 -8.7,-2.4 z"
       class="st2"
       inkscape:connector-curvature="0" />
    <path
       id="path67"
       d="m 234.2,13.4 c 6.7,0 11,4.8 11,10.8 0,5.9 -4.2,10.8 -11,10.8 -6.7,0 -11,-4.8 -11,-10.8 0,-6 4.3,-10.8 11,-10.8 z m 0,16.7 c 3.3,0 5.2,-2.6 5.2,-6 0,-3.4 -1.9,-6 -5.2,-6 -3.3,0 -5.2,2.6 -5.2,6 0,3.5 1.9,6 5.2,6 z"
       class="st2"
       inkscape:connector-curvature="0" />
    <path
       id="path69"
       d="m 250.2,13.8 h 15.4 v 4.9 H 256 v 3.6 h 8.3 v 4.6 H 256 v 7.7 h -5.7 V 13.8 Z"
       class="st2"
       inkscape:connector-curvature="0" />
    <path
       id="path71"
       d="m 278.2,18.8 h -6.5 v -5 h 18.6 v 5 h -6.5 v 15.7 h -5.7 V 18.8 Z"
       class="st2"
       inkscape:connector-curvature="0" />
    <path
       id="path73"
       d="m 142.5,22.7 h -4.8 v 4.8 h 4 v 1.9 c -0.8,0.5 -1.7,0.7 -2.9,0.7 -3.4,0 -5.4,-2.3 -5.4,-6 0,-3.4 2.1,-6 5.4,-6 2,0 3.5,0.8 4.8,1.8 l 3,-3.7 a 12.2,12.2 0 0 0 -8.1,-2.9 c -6.8,0 -11,4.9 -11,10.7 0,6.2 4.3,10.8 11,10.8 3.3,0 6.1,-1 8.3,-2.6 v -9.6 h -4.3 z"
       class="st2"
       inkscape:connector-curvature="0" />
  </g>
</svg>
