<?xml version="1.0" encoding="UTF-8" standalone="no"?>
<svg
   xmlns:dc="http://purl.org/dc/elements/1.1/"
   xmlns:cc="http://creativecommons.org/ns#"
   xmlns:rdf="http://www.w3.org/1999/02/22-rdf-syntax-ns#"
   xmlns:svg="http://www.w3.org/2000/svg"
   xmlns="http://www.w3.org/2000/svg"
   xmlns:sodipodi="http://sodipodi.sourceforge.net/DTD/sodipodi-0.dtd"
   xmlns:inkscape="http://www.inkscape.org/namespaces/inkscape"
   width="100"
   height="100"
   version="1.1"
   id="svg3945"
   sodipodi:docname="icons-linkedin.svg"
   style="fill:none"
   inkscape:version="0.92.3 (2405546, 2018-03-11)">
  <metadata
     id="metadata3949">
    <rdf:RDF>
      <cc:Work
         rdf:about="">
        <dc:format>image/svg+xml</dc:format>
        <dc:type
           rdf:resource="http://purl.org/dc/dcmitype/StillImage" />
        <dc:title></dc:title>
      </cc:Work>
    </rdf:RDF>
  </metadata>
  <sodipodi:namedview
     pagecolor="#ffffff"
     bordercolor="#666666"
     borderopacity="1"
     objecttolerance="10"
     gridtolerance="10"
     guidetolerance="10"
     inkscape:pageopacity="0"
     inkscape:pageshadow="2"
     inkscape:window-width="2121"
     inkscape:window-height="1514"
     id="namedview3947"
     showgrid="false"
     fit-margin-top="0"
     fit-margin-left="0"
     fit-margin-right="0"
     fit-margin-bottom="0"
     inkscape:zoom="6.3783784"
     inkscape:cx="31.29661"
     inkscape:cy="17.800001"
     inkscape:window-x="0"
     inkscape:window-y="0"
     inkscape:window-maximized="0"
     inkscape:current-layer="svg3945" />
  <g
     clip-path="url(#clip0)"
     id="g3938"
     transform="matrix(2.8248588,0,0,2.8248588,-1.4124294,-2.5423729)">
    <path
       d="M 29.3,0.9 H 7.2 c -3.7,0 -6.7,3 -6.7,6.6 v 22.1 c 0,3.7 3,6.7 6.7,6.7 h 22.1 c 3.7,0 6.7,-3 6.7,-6.7 V 7.6 C 36,3.8 33,0.9 29.3,0.9 Z m -17.8,30 H 6 V 14.5 h 5.5 z M 8.6,12.3 c -1.8,0 -3,-1.2 -3,-2.8 0,-1.6 1.2,-2.8 3,-2.8 1.9,0 3,1.2 3,2.8 0,1.6 -1.1,2.8 -3,2.8 z m 22,18.6 H 25 v -9 c 0,-2 -0.6,-3.6 -2.5,-3.6 -1.5,0 -2.3,1 -2.6,2 -0.2,0.3 -0.2,0.8 -0.2,1.3 V 31 H 14 V 14.5 h 5.5 v 2.3 a 5.2,5.2 0 0 1 4.8,-2.7 c 3.5,0 6.2,2.3 6.2,7.3 v 9.5 z"
       id="path3936"
       inkscape:connector-curvature="0"
       style="fill:#ffffff" />
  </g>
  <defs
     id="defs3943">
    <clipPath
       id="clip0">
      <path
         transform="translate(0.5,0.9)"
         d="M 0,0 H 35.4 V 35.4 H 0 Z"
         id="path3940"
         inkscape:connector-curvature="0"
         style="fill:#ffffff" />
    </clipPath>
  </defs>
</svg>
