<svg width="450" height="254" viewBox="0 0 450 254" fill="none" xmlns="http://www.w3.org/2000/svg">
<rect width="450" height="254" fill="white"/>
<g clip-path="url(#clip0)">
<path d="M105.179 113.088H56.5032V110.457H105.179V113.088ZM86.6179 155.548H84.0232V135.771C84.0273 132.374 82.9046 129.075 80.8367 126.407C78.7628 129.072 77.6367 132.372 77.6418 135.771V155.548H75.0217V135.771C75.0184 131.646 76.4325 127.649 79.0195 124.472C76.2994 121.976 72.7689 120.589 69.1052 120.577H56.5032V117.946H69.1052C73.4302 117.94 77.6028 119.57 80.8114 122.521C84.0169 119.571 88.1867 117.94 92.509 117.946H105.187V120.577H92.509C88.8626 120.585 85.3463 121.956 82.6286 124.429C85.2218 127.619 86.6335 131.632 86.6179 135.771V155.548ZM80.5493 84.0932C71.9152 84.0932 63.475 86.6979 56.2959 91.5779C49.1169 96.458 43.5215 103.394 40.2174 111.509C36.9133 119.625 36.0487 128.554 37.7332 137.17C39.4176 145.785 43.5753 153.698 49.6806 159.909C55.7859 166.12 63.5644 170.35 72.0327 172.064C80.5009 173.778 89.2785 172.898 97.2554 169.537C105.232 166.175 112.05 160.483 116.847 153.179C121.644 145.876 124.204 137.289 124.204 128.505C124.191 116.731 119.587 105.442 111.403 97.1162C103.219 88.7903 92.1233 84.1068 80.5493 84.0932V84.0932ZM80.5493 175.548C71.4037 175.548 62.4634 172.789 54.859 167.62C47.2547 162.451 41.3278 155.104 37.8279 146.508C34.328 137.912 33.4123 128.453 35.1965 119.328C36.9808 110.202 41.3848 101.82 47.8518 95.2406C54.3188 88.6615 62.5582 84.1811 71.5281 82.3659C80.4981 80.5507 89.7956 81.4823 98.2451 85.0429C106.695 88.6035 113.917 94.6332 118.998 102.369C124.079 110.106 126.791 119.201 126.791 128.505C126.775 140.977 121.898 152.933 113.23 161.752C104.561 170.571 92.8085 175.533 80.5493 175.548V175.548ZM80.5493 75.6407C70.2712 75.6373 60.223 78.7348 51.6754 84.5416C43.1279 90.3484 36.465 98.6035 32.5294 108.263C28.5938 117.922 27.5624 128.552 29.5655 138.808C31.5686 149.064 36.5163 158.485 43.7828 165.88C51.0493 173.275 60.3083 178.312 70.3887 180.353C80.469 182.394 90.918 181.348 100.414 177.347C109.91 173.347 118.027 166.571 123.737 157.877C129.448 149.183 132.496 138.962 132.496 128.505C132.48 114.493 127.003 101.058 117.265 91.148C107.527 81.2379 94.3232 75.6612 80.5493 75.6407V75.6407ZM80.5493 183.984C69.7584 183.984 59.2098 180.728 50.2376 174.629C41.2653 168.53 34.2725 159.861 30.1434 149.718C26.0142 139.575 24.9343 128.415 27.0401 117.648C29.1459 106.881 34.3429 96.991 41.9739 89.2289C49.6048 81.4668 59.327 76.1812 69.9108 74.0406C80.4946 71.8999 91.4647 73.0003 101.434 77.2026C111.403 81.4049 119.923 88.5204 125.917 97.6491C131.911 106.778 135.109 117.51 135.108 128.488C135.092 143.203 129.338 157.311 119.11 167.715C108.881 178.119 95.0135 183.97 80.5493 183.984" fill="#244747"/>
<path d="M282.191 153.148H261.374V129.682H273.342L278.472 134.927H279.157V122.124H278.472L273.333 127.369H261.374V105.4H281.042L287.989 110.533H288.564V103.087H288.547H249.38V103.706L253.471 107.068V151.48L249.38 154.876V155.461H289.967V146.991H289.392L282.191 153.148Z" fill="#244747"/>
<path d="M323.758 133.964L333.267 110.034L342.623 133.964H323.758ZM338.583 103.095H327.976V103.714L331.965 107.214L315.213 149.347L310.142 154.851V155.435H323.513V154.851L317.597 149.554L322.879 136.252H343.536L349.503 151.454L345.59 154.894V155.478H360.592V154.894L357.651 151.136L338.583 103.095Z" fill="#244747"/>
<path d="M423.391 146.768L415.573 153.148H397.334V107.068L401.534 103.706V103.087H385.349V103.706L389.439 107.068V151.48L385.349 154.876V155.461H424V146.768H423.391Z" fill="#244747"/>
<path d="M181.307 110.55H181.882L188.314 105.4H200.358V151.067L196.157 154.464V155.461H212.343V154.464L208.218 151.067V105.4H220.11L226.509 110.55H227.126V103.087H181.307V110.55Z" fill="#244747"/>
</g>
<defs>
<clipPath id="clip0">
<rect width="398" height="111" fill="white" transform="translate(26 73)"/>
</clipPath>
</defs>
</svg>
