<svg xmlns="http://www.w3.org/2000/svg" width="430" height="718" fill="none"><defs><linearGradient id="b" x1="546.65" y1="-89.78" x2="42.26" y2="554.94" gradientUnits="userSpaceOnUse" gradientTransform="matrix(.72842 0 0 .91403 116.08 -146.95)"><stop stop-color="#53B89C"/><stop offset=".03" stop-color="#52B89C"/><stop offset=".12" stop-color="#50B49C"/><stop offset=".24" stop-color="#49AA9B"/><stop offset=".39" stop-color="#3F9998"/><stop offset=".55" stop-color="#358192"/><stop offset=".72" stop-color="#2F6387"/><stop offset=".9" stop-color="#2D4077"/><stop offset="1" stop-color="#2A2D6F"/></linearGradient><clipPath id="a"><path fill="#00f" d="M74.59-2.39h385.33v530.92H74.59z"/></clipPath></defs><path d="M429.3-185.88v675.15c0 11.14-9.08 20.05-20.43 20.05-163.42-11.14-292.8-144.83-292.8-307.49V-473.3c0-11.14 9.09-20.05 20.43-20.05 163.42 11.14 292.8 144.83 292.8 307.49z" clip-path="url(#a)" transform="translate(-12.76)" fill="url(#b)"/><path d="M-162.35-525.74h669.73v485.45h-669.73z"/><path d="M-161.95-514.57h739.14V-6.39h-739.14z"/><path d="M-132.83-518.16H465.9V5.58h-598.73z"/><path d="M49.06-505.8h444.37V4H49.06z"/><path d="M64.22-505.39h414.84v503H64.22z"/><path d="M-24.33-500.21h481.06V-2.4H-24.33z"/><path d="M74.6-503.4h404.47v501H74.59z"/><path d="M61.83-499.01h394.9V-2.39H61.83z"/><ellipse cx="414.25" cy="-9.77" rx="34.9" ry="83.17"/></svg>